<svg width="20" height="21" viewBox="0 0 20 21" fill="none" xmlns="http://www.w3.org/2000/svg">
<path d="M2.85139 0.5C1.27867 0.5 0 1.78125 0 3.35714V17.6429C0 19.2188 1.27867 20.5 2.85139 20.5H17.1084C18.6811 20.5 19.9598 19.2188 19.9598 17.6429V3.35714C19.9598 1.78125 18.6811 0.5 17.1084 0.5H2.85139ZM6.89235 4.81696C7.32452 4.70089 7.77896 4.91964 7.94826 5.33482L8.83932 7.47768C8.9908 7.84375 8.88387 8.26339 8.58091 8.51339L7.48491 9.41518C8.22449 10.9866 9.49425 12.2589 11.0625 13L11.9625 11.8973C12.212 11.5938 12.6308 11.4866 12.9961 11.6384L15.1347 12.5312C15.549 12.7054 15.7673 13.1563 15.6515 13.5893L15.1168 15.5536C15.0099 15.9464 14.6579 16.2143 14.257 16.2143C8.74576 16.2143 4.27709 11.7366 4.27709 6.21429C4.27709 5.8125 4.54441 5.45982 4.93202 5.35268L6.89235 4.81696Z" fill="#E68D29"/>
</svg>
